<?xml version="1.0" encoding="UTF-8"?>
<svg version="1.1" xmlns="http://www.w3.org/2000/svg" width="512" height="512">
<path d="M0 0 C13.2 0 26.4 0 40 0 C40 13.2 40 26.4 40 40 C127.12 40 214.24 40 304 40 C304 26.8 304 13.6 304 0 C317.2 0 330.4 0 344 0 C344 13.2 344 26.4 344 40 C354.93340173 39.8428787 354.93340173 39.8428787 365.8659668 39.63964844 C383.28835661 39.42418157 397.93614469 44.50454582 410.71875 56.66015625 C421.41120366 67.62724485 428.26254051 81.1714833 428.24050903 96.68164062 C428.24307231 97.77607687 428.24307231 97.77607687 428.24568737 98.89262295 C428.24895633 101.31393499 428.23802185 103.73496391 428.22705078 106.15625 C428.22648611 107.90125014 428.22680433 109.64625075 428.22793579 111.39125061 C428.2285081 116.11174268 428.21677348 120.83213249 428.20278788 125.55260086 C428.19026024 130.4920118 428.18910841 135.43142524 428.18673706 140.37084961 C428.18052827 149.71687949 428.16412557 159.06286242 428.14403808 168.40887165 C428.12166039 179.05213708 428.11068095 189.69540479 428.10064721 200.3386879 C428.07975882 222.22581811 428.04459452 244.11290609 428 266 C421.52850948 260.66928383 421.52850948 260.66928383 418.8125 257.3125 C409.86304062 246.90388963 398.99935153 239.24951365 388 231 C388 216.81 388 202.62 388 188 C245.44 188 102.88 188 -44 188 C-43.87625 231.395 -43.7525 274.79 -43.625 319.5 C-43.59100098 333.20982422 -43.55700195 346.91964844 -43.52197266 361.04492188 C-43.48207086 373.31793661 -43.48207086 373.31793661 -43.43954468 385.59094238 C-43.42065118 391.06392301 -43.40714836 396.53688571 -43.39730835 402.0098877 C-43.38593963 408.32281974 -43.36772205 414.63568786 -43.34107121 420.94857457 C-43.32765492 424.17741264 -43.31839704 427.40616449 -43.31574559 430.6350317 C-43.312428 434.09529251 -43.2969704 437.55529479 -43.2784729 441.01550293 C-43.28040838 442.01912117 -43.28234386 443.02273941 -43.284338 444.05677032 C-43.21904616 452.24058636 -42.47031992 459.49475469 -37 466 C-30.78211102 470.73527798 -24.4312664 471.13435964 -16.85394287 471.07073975 C-16.15758453 471.06650537 -15.46122618 471.06227099 -14.74376607 471.0579083 C-13.22521241 471.04808266 -11.70667259 471.03589647 -10.18815422 471.02162361 C-7.71617252 470.99842179 -5.24421221 470.98128387 -2.77217102 470.96574402 C-0.10725208 470.94897728 2.55765927 470.93186775 5.22256422 470.91299295 C11.82991769 470.86675883 18.43711728 470.84150146 25.0446167 470.82891846 C26.00485976 470.82708392 26.96510283 470.82524938 27.95444417 470.82335925 C31.91381771 470.81626732 35.87319191 470.80996324 39.83256769 470.80426168 C51.06089728 470.78744286 62.28820955 470.74957274 73.51611328 470.64697266 C82.44383709 470.56552375 91.37040625 470.53009397 100.29850173 470.54848695 C105.01922879 470.55650874 109.73732973 470.5415907 114.4575882 470.4708786 C118.90100431 470.40486198 123.34036221 470.40021849 127.78403664 470.44149208 C129.40862192 470.4459163 131.03344921 470.42834239 132.65749931 470.38641167 C144.59074078 470.09633477 144.59074078 470.09633477 148.62944126 473.28749561 C152.02443541 476.81683153 154.48543893 480.8206974 157 485 C158.014312 486.31380212 159.0540449 487.60912463 160.13671875 488.8671875 C160.97847656 489.85976563 161.82023438 490.85234375 162.6875 491.875 C168.27075325 498.42835822 174.06424288 504.36928976 180.71484375 509.8359375 C181.13894531 510.22007812 181.56304687 510.60421875 182 511 C182 511.33 182 511.66 182 512 C153.93126649 512.09354342 125.86255643 512.16402831 97.79369831 512.20724869 C84.76011753 512.22785226 71.72663375 512.2559308 58.69311523 512.30175781 C47.32984338 512.34169296 35.96664179 512.36744883 24.6033017 512.37635398 C18.58944795 512.38155737 12.57579518 512.3937415 6.562006 512.42292023 C0.89443396 512.45019472 -4.77285547 512.45842068 -10.44048691 512.45243073 C-12.5136284 512.45352559 -14.58677995 512.46140728 -16.65986443 512.4768219 C-36.1938 512.61486833 -52.0366423 509.30178477 -66.71875 495.33984375 C-80.13436948 481.579645 -84.31061423 466.69148669 -84.26742554 447.92695618 C-84.27116505 446.38663914 -84.27576777 444.846324 -84.28115618 443.30601186 C-84.2933645 439.08497414 -84.29312827 434.86401581 -84.29076743 430.64296448 C-84.29035871 426.08588262 -84.3014037 421.52882602 -84.31088257 416.97175598 C-84.32748193 408.04762371 -84.33299164 399.12351786 -84.33410732 390.19937143 C-84.33505836 382.94328123 -84.33917141 375.68719974 -84.34550858 368.43111229 C-84.36311851 347.84799105 -84.3723479 327.26489066 -84.37084763 306.68176184 C-84.37076772 305.57256412 -84.3706878 304.46336641 -84.37060547 303.32055664 C-84.37052371 302.21000076 -84.37044195 301.09944489 -84.37035771 299.9552358 C-84.369545 281.96168111 -84.38867945 263.96821016 -84.4168822 245.97467969 C-84.44562794 227.48848482 -84.45942155 209.00233077 -84.45769465 190.51611298 C-84.45703131 180.14178727 -84.46249916 169.76754934 -84.48405075 159.39324379 C-84.50228482 150.55942704 -84.50659163 141.72573786 -84.4930319 132.89191041 C-84.48651335 128.38798734 -84.48634469 123.88430886 -84.5037384 119.38040924 C-84.5195237 115.25037179 -84.51655026 111.12077175 -84.49917014 106.99074461 C-84.49611219 105.5035463 -84.49968682 104.0163149 -84.51089029 102.52915565 C-84.63436204 84.96393565 -79.54682508 70.11787596 -67.33984375 57.28125 C-56.91822657 47.12060821 -43.57572266 39.76862469 -28.72851562 39.77368164 C-27.65633789 39.78902954 -27.65633789 39.78902954 -26.5625 39.8046875 C-25.88251953 39.80670166 -25.20253906 39.80871582 -24.50195312 39.81079102 C-22.00123185 39.82112688 -19.50060797 39.84904769 -17 39.875 C-11.39 39.91625 -5.78 39.9575 0 40 C0 26.8 0 13.6 0 0 Z M-39 87 C-50.76308534 102.25636523 -44 137.70737215 -44 148 C98.56 148 241.12 148 388 148 C391.82112394 117.14337155 391.82112394 117.14337155 381 85 C375.25407091 80.56972757 369.22910404 79.86435966 362.1640625 79.90234375 C361.2045166 79.90484131 360.2449707 79.90733887 359.25634766 79.90991211 C358.05800293 79.91901611 356.8596582 79.92812012 355.625 79.9375 C349.870625 79.9684375 349.870625 79.9684375 344 80 C344 93.2 344 106.4 344 120 C330.8 120 317.6 120 304 120 C304 106.8 304 93.6 304 80 C216.88 80 129.76 80 40 80 C40 93.2 40 106.4 40 120 C26.8 120 13.6 120 0 120 C0 106.8 0 93.6 0 80 C-3.795 79.95875 -7.59 79.9175 -11.5 79.875 C-12.68013672 79.85679199 -13.86027344 79.83858398 -15.07617188 79.81982422 C-24.17205175 79.77222593 -32.1753753 80.41787465 -39 87 Z " fill="#000000" transform="translate(84,0)"/>
<path d="M0 0 C0.75877441 0.20898926 1.51754883 0.41797852 2.29931641 0.63330078 C37.29462644 10.49165463 65.99122734 35.0749649 83.65332031 66.55566406 C99.91946644 96.59297761 104.4307476 134.06826299 95 167 C94.79101074 167.75877441 94.58202148 168.51754883 94.36669922 169.29931641 C84.50834537 204.29462644 59.9250351 232.99122734 28.44433594 250.65332031 C-1.59297761 266.91946644 -39.06826299 271.4307476 -72 262 C-73.13816162 261.68651611 -73.13816162 261.68651611 -74.29931641 261.36669922 C-109.29462644 251.50834537 -137.99122734 226.9250351 -155.65332031 195.44433594 C-171.91946644 165.40702239 -176.4307476 127.93173701 -167 95 C-166.79101074 94.24122559 -166.58202148 93.48245117 -166.36669922 92.70068359 C-156.50834537 57.70537356 -131.9250351 29.00877266 -100.44433594 11.34667969 C-70.40702239 -4.91946644 -32.93173701 -9.4307476 0 0 Z M-107 68 C-125.84754074 90.07989735 -131.56435929 115.4526279 -130 144 C-127.53548679 166.68453139 -114.61348117 188.67223322 -97.40234375 203.36376953 C-75.01922482 221.34831456 -48.85165391 227.80859858 -20.38427734 224.71582031 C2.71231549 221.07387183 24.83761112 207.6001701 38.98706055 189.05151367 C55.21228422 166.71007385 61.68513639 140.55697757 57.3515625 113.07421875 C52.63833933 89.29557744 38.44089718 67.35703253 18.54418945 53.52026367 C-21.71028523 26.77283322 -74.08820833 32.26654483 -107 68 Z " fill="#000000" transform="translate(413,246)"/>
<path d="M0 0 C13.2 0 26.4 0 40 0 C40 15.51 40 31.02 40 47 C51.22 47 62.44 47 74 47 C74 60.2 74 73.4 74 87 C49.58 87 25.16 87 0 87 C0 58.29 0 29.58 0 0 Z " fill="#000000" transform="translate(356,310)"/>
<path d="M0 0 C13.2 0 26.4 0 40 0 C40 13.2 40 26.4 40 40 C26.8 40 13.6 40 0 40 C0 26.8 0 13.6 0 0 Z " fill="#000000" transform="translate(156,390)"/>
<path d="M0 0 C13.2 0 26.4 0 40 0 C40 13.2 40 26.4 40 40 C26.8 40 13.6 40 0 40 C0 26.8 0 13.6 0 0 Z " fill="#000000" transform="translate(76,390)"/>
<path d="M0 0 C13.2 0 26.4 0 40 0 C40 13.2 40 26.4 40 40 C26.8 40 13.6 40 0 40 C0 26.8 0 13.6 0 0 Z " fill="#000000" transform="translate(156,310)"/>
<path d="M0 0 C13.2 0 26.4 0 40 0 C40 13.2 40 26.4 40 40 C26.8 40 13.6 40 0 40 C0 26.8 0 13.6 0 0 Z " fill="#000000" transform="translate(76,310)"/>
<path d="M0 0 C13.2 0 26.4 0 40 0 C40 13.2 40 26.4 40 40 C26.8 40 13.6 40 0 40 C0 26.8 0 13.6 0 0 Z " fill="#000000" transform="translate(236,230)"/>
<path d="M0 0 C13.2 0 26.4 0 40 0 C40 13.2 40 26.4 40 40 C26.8 40 13.6 40 0 40 C0 26.8 0 13.6 0 0 Z " fill="#000000" transform="translate(156,230)"/>
<path d="M0 0 C13.2 0 26.4 0 40 0 C40 13.2 40 26.4 40 40 C26.8 40 13.6 40 0 40 C0 26.8 0 13.6 0 0 Z " fill="#000000" transform="translate(76,230)"/>
</svg>
