<?xml version="1.0" encoding="UTF-8"?>
<svg version="1.1" xmlns="http://www.w3.org/2000/svg" width="512" height="512">
<path d="M0 0 C1.68466741 1.51387164 3.36316193 3.03464312 5.03515625 4.5625 C7.38198537 6.6956402 9.77081461 8.77147698 12.16796875 10.84765625 C15.54795488 13.85666829 18.58662612 16.97416583 21.49609375 20.4375 C22.99341268 22.20893441 24.53215416 23.94547384 26.08984375 25.6640625 C55.46933091 58.32559141 74.89426147 101.4881047 81.48046875 144.78515625 C81.65562012 145.905271 81.83077148 147.02538574 82.01123047 148.17944336 C83.61524304 159.48980676 83.87862621 170.68506968 83.85546875 182.09765625 C83.85525726 183.0626001 83.85504578 184.02754395 83.85482788 185.02172852 C83.82014125 200.92825964 82.80680892 216.18388288 79.48046875 231.78515625 C79.2985498 232.66880859 79.11663086 233.55246094 78.92919922 234.46289062 C71.31050521 270.54785777 55.04551895 305.36822595 31.48046875 333.78515625 C30.99497559 334.37216309 30.50948242 334.95916992 30.00927734 335.56396484 C18.98403986 348.79355445 7.21087423 361.32565491 -6.51953125 371.78515625 C-7.08784668 372.21924805 -7.65616211 372.65333984 -8.24169922 373.10058594 C-60.98802776 413.18274679 -125.74059886 430.11441436 -191.34228516 421.41064453 C-243.81455926 413.66236708 -289.57054832 389.33208316 -327.51953125 352.78515625 C-328.31359375 352.03234375 -329.10765625 351.27953125 -329.92578125 350.50390625 C-335.27628005 345.32326455 -339.90013466 339.61733756 -344.51953125 333.78515625 C-345.29039062 332.84285156 -346.06125 331.90054687 -346.85546875 330.9296875 C-372.04552492 299.42173698 -388.28094003 260.55375092 -394.51953125 220.78515625 C-394.70209473 219.62959229 -394.8846582 218.47402832 -395.07275391 217.28344727 C-396.67308512 206.01343888 -396.91869758 194.84438135 -396.89453125 183.47265625 C-396.89398743 182.50671539 -396.8934436 181.54077454 -396.8928833 180.54556274 C-396.85185916 164.64837931 -395.92710488 149.36559945 -392.51953125 133.78515625 C-392.30522461 132.79902344 -392.09091797 131.81289062 -391.87011719 130.796875 C-380.91165542 82.11386871 -354.4851186 33.83162061 -315.51953125 1.78515625 C-314.67519531 1.05296875 -313.83085937 0.32078125 -312.9609375 -0.43359375 C-280.52253006 -28.25051845 -241.40547832 -46.24903417 -199.51953125 -54.21484375 C-198.67390625 -54.38000488 -197.82828125 -54.54516602 -196.95703125 -54.71533203 C-127.94043727 -67.58937647 -52.50332052 -46.15408176 0 0 Z M-195.51953125 -21.21484375 C-196.46119141 -21.01616699 -197.40285156 -20.81749023 -198.37304688 -20.61279297 C-235.42888041 -12.57680568 -268.2587579 4.0331067 -296.1953125 29.70703125 C-297.78835075 31.13139486 -299.43036599 32.50228406 -301.109375 33.82421875 C-303.26530058 35.57831055 -304.98522134 37.29241469 -306.76953125 39.41015625 C-308.65593878 41.62922059 -310.54572859 43.81286789 -312.546875 45.9296875 C-323.93894809 58.02217738 -332.91123916 72.07029323 -340.51953125 86.78515625 C-340.89174805 87.49833008 -341.26396484 88.21150391 -341.64746094 88.94628906 C-354.637419 114.13994174 -363.55988873 143.09447289 -363.72265625 171.61328125 C-363.72967056 172.43602539 -363.73668488 173.25876953 -363.74391174 174.10644531 C-363.76133652 176.74940512 -363.76776461 179.3921411 -363.76953125 182.03515625 C-363.77020599 182.93665405 -363.77088074 183.83815186 -363.77157593 184.76696777 C-363.75618851 197.67801422 -363.4225581 210.15344917 -360.51953125 222.78515625 C-360.26212158 223.97915039 -360.26212158 223.97915039 -359.99951172 225.19726562 C-353.01089695 257.29867753 -339.5325677 287.4011611 -318.51953125 312.78515625 C-317.80579346 313.65116455 -317.80579346 313.65116455 -317.07763672 314.53466797 C-307.50528182 326.08321076 -297.40777979 336.57291708 -285.51953125 345.78515625 C-284.97731934 346.20909668 -284.43510742 346.63303711 -283.87646484 347.06982422 C-240.83857337 380.50573366 -186.17981425 395.65402977 -132.0625 389.53125 C-77.99533053 382.66328424 -27.07124003 355.04329583 6.48046875 311.78515625 C6.8990918 311.2535791 7.31771484 310.72200195 7.74902344 310.17431641 C20.93932285 293.33199562 30.76972148 274.69661102 38.48046875 254.78515625 C38.73908691 254.1185498 38.99770508 253.45194336 39.26416016 252.76513672 C42.23221583 244.93465304 44.27132098 236.92806951 46.16796875 228.78515625 C46.37067383 227.91963135 46.57337891 227.05410645 46.78222656 226.16235352 C49.9568573 211.90433959 50.89112721 197.95880609 50.85546875 183.41015625 C50.85459259 182.53286865 50.85371643 181.65558105 50.85281372 180.75170898 C50.70581989 135.96385984 35.92966913 92.33396788 8.48046875 56.78515625 C8.05362793 56.22989258 7.62678711 55.67462891 7.18701172 55.10253906 C-8.84733911 34.55990634 -28.72556401 16.49133184 -51.51953125 3.78515625 C-52.64004883 3.15528809 -52.64004883 3.15528809 -53.78320312 2.51269531 C-74.1136992 -8.80970349 -94.75047994 -16.4109012 -117.51953125 -21.21484375 C-118.35291016 -21.39418457 -119.18628906 -21.57352539 -120.04492188 -21.75830078 C-143.96688536 -26.666495 -171.67773836 -26.3455312 -195.51953125 -21.21484375 Z " fill="#000000" transform="translate(412.51953125,76.21484375)"/>
<path d="M0 0 C3.76213133 1.87702036 6.40831866 4.45246978 8.28125 8.22265625 C10.0178152 13.80227106 9.97218053 19.19550827 7.44500732 24.46240234 C4.51426219 29.42806734 0.42797398 33.25972808 -3.64746094 37.2890625 C-4.51301605 38.15666199 -5.37857117 39.02426147 -6.27035522 39.91815186 C-8.63292792 42.28320792 -11.00195942 44.64140722 -13.37433529 46.99660492 C-15.86610046 49.47324861 -18.34967527 51.9580808 -20.83428955 54.44189453 C-25.00887053 58.61278996 -29.18903099 62.77802332 -33.37304688 66.93945312 C-38.72422553 72.26180167 -44.06615185 77.59333601 -49.40516281 82.92788696 C-54.01699853 87.53572395 -58.63307811 92.13930295 -63.24983311 96.74221039 C-64.72275381 98.21105641 -66.19510592 99.68047054 -67.66738129 101.14996338 C-70.42586296 103.90258243 -73.18874565 106.65075852 -75.95214844 109.3984375 C-76.75866852 110.20383972 -77.5651886 111.00924194 -78.39614868 111.83905029 C-82.51908231 115.93110807 -86.7293746 119.83960313 -91.12815857 123.63203621 C-94.45616375 126.58297309 -97.55181091 129.75665787 -100.66455078 132.93139648 C-102.14087568 134.42736667 -103.61720438 135.92333309 -105.09353638 137.41929626 C-105.86309788 138.20108686 -106.63265938 138.98287746 -107.42554092 139.78835869 C-111.53210477 143.95610319 -115.65425241 148.10840805 -119.7734375 152.26367188 C-125.00021184 157.53845008 -130.22227742 162.81767741 -135.42919922 168.11206055 C-139.65296501 172.40596218 -143.89113351 176.68516393 -148.13936996 180.95485115 C-149.75313858 182.58222144 -151.3614749 184.21499726 -152.96423721 185.85320854 C-155.19966916 188.13676143 -157.4529837 190.40109999 -159.71142578 192.66186523 C-160.36924042 193.34282257 -161.02705505 194.02377991 -161.70480347 194.72537231 C-162.63380463 195.64416924 -162.63380463 195.64416924 -163.58157349 196.58152771 C-164.3762437 197.38644228 -164.3762437 197.38644228 -165.18696785 198.20761776 C-167.95124989 199.88561866 -169.88770934 199.74474353 -173.05859375 199.34375 C-175.19685745 197.94935989 -175.19685745 197.94935989 -177.18341064 195.95391846 C-177.94604218 195.20242523 -178.70867371 194.45093201 -179.49441528 193.67666626 C-180.31126801 192.84138397 -181.12812073 192.00610168 -181.96972656 191.14550781 C-182.84521149 190.27411163 -183.72069641 189.40271545 -184.62271118 188.50491333 C-187.01800806 186.11460113 -189.39915247 183.71169165 -191.77471256 181.30185795 C-194.26466348 178.78180544 -196.7708484 176.27799744 -199.27508545 173.77215576 C-203.47801189 169.56184688 -207.66950705 165.34043333 -211.85351562 161.11132812 C-217.22191166 155.68518777 -222.60869678 150.27769947 -228.00157547 144.87590408 C-232.6402711 140.22924297 -237.27041968 135.57409181 -241.89921474 130.91757107 C-243.3862768 129.42231938 -244.87450491 127.92823576 -246.36289215 126.43430328 C-249.13660131 123.64897013 -251.90135535 120.8548529 -254.66503906 118.05957031 C-255.48998871 117.23238495 -256.31493835 116.40519958 -257.16488647 115.552948 C-257.91623871 114.79017548 -258.66759094 114.02740295 -259.44171143 113.24151611 C-260.09576588 112.58151234 -260.74982033 111.92150856 -261.42369461 111.24150467 C-265.47603164 106.5376417 -265.48850181 102.28965136 -265.37109375 96.2578125 C-264.80257219 90.95634899 -262.27993591 88.50402505 -258.55859375 84.96875 C-253.50080889 82.62049274 -248.54173582 82.37277693 -243.05859375 83.34375 C-238.17210036 86.21357913 -234.42423711 89.7332383 -230.48999023 93.78051758 C-229.86316345 94.41669006 -229.23633667 95.05286255 -228.59051514 95.70831299 C-227.23797429 97.08176392 -225.88764039 98.45739102 -224.53930473 99.83497047 C-222.40553237 102.01293667 -220.2637808 104.18274617 -218.11940002 106.3502655 C-212.02617246 112.51056946 -205.94147961 118.67911038 -199.87719727 124.86791992 C-196.16133208 128.65893014 -192.43111402 132.43529056 -188.69117928 136.20255089 C-187.26902961 137.6408349 -185.85246021 139.08465847 -184.44158745 140.53400612 C-182.47381942 142.55452716 -180.48837933 144.55593804 -178.49780273 146.55395508 C-177.91740738 147.15906418 -177.33701202 147.76417328 -176.73902893 148.38761902 C-173.76640185 151.47850856 -173.76640185 151.47850856 -169.75790405 152.34857273 C-165.97491743 150.9403497 -163.60544951 148.41892166 -160.84107971 145.58706665 C-160.23259168 144.97987962 -159.62410365 144.37269259 -158.99717659 143.74710596 C-156.95797011 141.70746267 -154.93341693 139.65386878 -152.90844727 137.60009766 C-151.45036541 136.13597701 -149.99137882 134.67275689 -148.53155518 133.21037292 C-145.38826186 130.05781796 -142.25134192 126.89910038 -139.11914253 123.73552322 C-134.16667048 118.73378895 -129.19956359 113.7467641 -124.23020935 108.7618103 C-114.57920641 99.07649703 -104.94302548 89.37651409 -95.30856323 79.67475128 C-83.04978457 67.3314406 -70.78519224 54.99394552 -58.50568336 42.67125547 C-53.5669149 37.71410852 -48.63593737 32.74937701 -43.71087468 27.77861428 C-40.64510936 24.68728603 -37.57317894 21.60214048 -34.49958801 18.51859474 C-33.07554154 17.08733394 -31.6541 15.65347591 -30.23547173 14.21684456 C-28.29822804 12.25570363 -26.3519017 10.30403825 -24.40309143 8.35440063 C-23.84422778 7.78406998 -23.28536413 7.21373933 -22.70956522 6.62612593 C-16.2367782 0.19633254 -9.04983055 -2.88495547 0 0 Z " fill="#000000" transform="translate(384.05859375,164.65625)"/>
</svg>
