<svg width="50" height="50" viewBox="0 0 50 50" fill="none" xmlns="http://www.w3.org/2000/svg">
<path d="M13.4001 49.3989C13.4001 49.6155 13.4001 49.7942 13.4001 49.9964C8.94227 49.9964 4.50049 49.9964 0.0313094 49.9964C0.0313094 39.6884 0.0313094 29.3706 0.0313094 19.0253C4.46046 20.8073 8.89535 22.5916 13.4001 24.404C13.4001 24.2049 13.4001 24.0929 13.4001 23.981C13.4001 21.1011 13.3956 18.2213 13.4076 15.3415C13.4088 15.0732 13.3152 14.9475 13.0307 14.8339C10.5968 13.8621 8.17243 12.8725 5.74452 11.8895C4.05699 11.2063 2.36873 10.5244 0.67939 9.84448C0.56376 9.79794 0.406022 9.80095 0.321467 9.73193C0.191245 9.62562 0.0178279 9.47724 0.017107 9.34607C0.000280018 6.28631 0.00422242 3.22647 0.00516408 0.166641C0.00517497 0.128728 0.0160155 0.0908165 0.0298785 0C0.694571 0.263033 1.34238 0.514642 1.98554 0.774839C3.55657 1.41041 5.12329 2.05395 6.6957 2.68693C8.80037 3.53417 10.9078 4.37639 13.0168 5.21545C13.29 5.32415 13.4133 5.45205 13.4114 5.74472C13.3926 8.58589 13.4001 11.4272 13.4001 14.2685C13.4001 14.3963 13.4001 14.524 13.4001 14.7068C13.534 14.6697 13.6376 14.6516 13.7304 14.6138C15.3654 13.9477 16.9956 13.2727 18.634 12.6129C20.8291 11.7289 23.0329 10.8606 25.2284 9.97718C26.996 9.2659 28.7545 8.53761 30.5215 7.82505C32.7682 6.91898 35.0206 6.0232 37.2685 5.11914C38.984 4.42919 40.6954 3.73169 42.4102 3.04044C44.2027 2.31788 45.9963 1.59733 47.791 0.878862C48.5151 0.588995 49.2434 0.306999 50.0003 0.00941595C50.0003 16.693 50.0003 33.3365 50.0003 50C45.5502 50 41.1084 50 36.6202 50C36.6202 38.4139 36.6202 26.8287 36.6202 15.1985C35.424 15.6866 34.2878 16.1548 33.147 16.6146C30.4452 17.7036 27.7407 18.7872 25.0386 19.8754C23.2976 20.5766 21.5601 21.2842 19.8189 21.985C17.7666 22.8111 15.7123 23.6334 13.6577 24.4553C13.5826 24.4854 13.4958 24.4936 13.4001 24.5152C13.4001 32.8031 13.4001 41.082 13.4001 49.3989Z" fill="black"/>
</svg>
