<?xml version="1.0" encoding="UTF-8"?>
<svg version="1.1" xmlns="http://www.w3.org/2000/svg" width="512" height="512">
<path d="M0 0 C1.37235645 -0.00128164 1.37235645 -0.00128164 2.77243727 -0.00258917 C5.83868313 -0.00423653 8.9048743 0.00126527 11.97111511 0.00672913 C14.16886901 0.00701118 16.36662299 0.0068529 18.56437683 0.00628662 C24.5329069 0.00599937 30.50141693 0.01188443 36.46994233 0.01886058 C42.70663492 0.02510615 48.94332796 0.02569887 55.18002319 0.02688599 C65.64863933 0.02964229 76.1172486 0.03589116 86.58586121 0.04481506 C97.36776187 0.05399646 108.14966054 0.06107374 118.93156433 0.06532288 C119.59635073 0.0655856 120.26113712 0.06584832 120.94606856 0.06611901 C124.28116327 0.06742406 127.61625799 0.06868551 130.95135272 0.06993091 C158.61183528 0.08038725 186.27230964 0.09797984 213.93278503 0.12025452 C212.5371176 3.64689423 211.04277952 7.07919641 209.40153503 10.49916077 C208.92071472 11.50269592 208.43989441 12.50623108 207.94450378 13.54017639 C207.4456366 14.57722717 206.94676941 15.61427795 206.43278503 16.68275452 C205.93391785 17.72367249 205.43505066 18.76459045 204.92106628 19.83705139 C202.95022817 23.94516569 200.97052894 28.04476671 198.93278503 32.12025452 C134.58278503 32.12025452 70.23278503 32.12025452 3.93278503 32.12025452 C3.60278503 34.43025452 3.27278503 36.74025452 2.93278503 39.12025452 C2.26779337 41.72168774 1.57054621 44.28588636 0.81340027 46.85951233 C0.59773942 47.60666504 0.38207857 48.35381775 0.15988255 49.12361145 C-0.55848702 51.60818543 -1.28356056 54.09075069 -2.00862122 56.57337952 C-2.52539943 58.35587069 -3.04174616 60.13848701 -3.55769348 61.92121887 C-4.95289214 66.73772431 -6.35381393 71.55254787 -7.75580215 76.36708069 C-9.21763443 81.39062124 -10.6743706 86.41563869 -12.13142395 91.44056702 C-13.93868963 97.67213739 -15.74648305 103.9035527 -17.55661011 110.1342926 C-21.46575119 123.5908821 -25.36126695 137.05133097 -29.24376106 150.51563263 C-30.0888907 153.44642727 -30.93431617 156.3771364 -31.77984619 159.30781555 C-32.05325112 160.25548168 -32.32665606 161.20314781 -32.60834599 162.1795311 C-32.87893046 163.117421 -33.14951494 164.0553109 -33.42829895 165.0216217 C-35.02529114 170.55707935 -36.62189962 176.09264649 -38.21690369 181.62867737 C-39.45755122 185.93441539 -40.70007232 190.23960844 -41.9440155 194.54439545 C-42.39948211 196.12184437 -42.8542583 197.69949283 -43.30830383 199.27735138 C-43.92481072 201.4195147 -44.5436791 203.56098158 -45.16316223 205.70228577 C-45.50887772 206.90087219 -45.8545932 208.09945862 -46.21078491 209.33436584 C-47.06721497 212.12025452 -47.06721497 212.12025452 -48.06721497 214.12025452 C90.53278503 214.12025452 229.13278503 214.12025452 371.93278503 214.12025452 C362.03278503 179.80025452 352.13278503 145.48025452 341.93278503 110.12025452 C335.93278503 89.12025452 335.93278503 89.12025452 335.93278503 87.12025452 C337.63532562 85.74675103 339.3982712 84.44792907 341.18278503 83.18275452 C346.46127425 79.36560936 351.27759534 75.22358538 356.00993347 70.75135803 C358.24647831 68.6414895 360.36368515 66.83298777 362.93278503 65.12025452 C365.19823926 70.94508369 367.08802531 76.79049792 368.80509949 82.79774475 C369.07565659 83.73457596 369.34621368 84.67140717 369.62496948 85.6366272 C370.51840351 88.73315921 371.40726429 91.83098384 372.29606628 94.92884827 C372.93058282 97.13181037 373.56536926 99.33469475 374.20040894 101.5375061 C375.8796741 107.36547483 377.55500995 113.19456623 379.229599 119.02388 C380.87876405 124.76181687 382.53195639 130.49859298 384.18473816 136.23548889 C386.14730812 143.04809023 388.10799824 149.86121411 390.06123352 156.67649841 C390.71191442 158.94665737 391.36262038 161.21680915 392.01335144 163.48695374 C392.33424807 164.60648626 392.65514469 165.72601879 392.98576546 166.87947655 C394.97812412 173.82111398 396.98990305 180.75681426 399.01625919 187.68860149 C400.34017865 192.22142245 401.65610676 196.75654291 402.97098351 201.29199409 C403.59270631 203.42874568 404.21817864 205.56441031 404.84763527 207.69889641 C405.71539678 210.64269279 406.56998175 213.59002454 407.42179871 216.53846741 C407.67818556 217.39562662 407.93457241 218.25278584 408.19872856 219.13591957 C409.99064402 225.4114218 411.05073559 231.06060038 408.74528503 237.37025452 C405.70868552 241.97750896 402.14165172 244.45226707 396.93278503 246.12025452 C394.25666782 246.30642689 391.68692428 246.39067722 389.01255226 246.37473011 C388.21703296 246.37793659 387.42151365 246.38114307 386.6018877 246.38444671 C383.92570655 246.39277407 381.2497476 246.38681286 378.57356262 246.38095093 C376.63970332 246.38397036 374.70584521 246.3878588 372.77198923 246.39254349 C367.44944168 246.40285906 362.12696122 246.40063263 356.80440807 246.3963629 C351.06742303 246.39390212 345.33045442 246.40290177 339.59347534 246.41040039 C328.35082406 246.42316752 317.10819664 246.42493857 305.86553933 246.42260013 C296.72955926 246.42081904 287.59358646 246.42256211 278.45760727 246.42682457 C276.5091884 246.42771735 276.5091884 246.42771735 274.52140754 246.42862817 C271.88282232 246.42983989 269.24423711 246.43105402 266.6056519 246.43227055 C248.88203186 246.440061 231.15841495 246.44397463 213.43479347 246.4399538 C212.39491119 246.43971924 212.39491119 246.43971924 211.33402119 246.43947994 C207.82024944 246.43867414 204.3064777 246.43782837 200.79270597 246.43696664 C200.09484735 246.43679555 199.39698872 246.43662446 198.67798287 246.43644819 C197.26674277 246.43610153 195.85550266 246.435753 194.44426256 246.4354026 C172.48436615 246.43004515 150.52450989 246.43797586 128.56462097 246.45643616 C103.8979114 246.47714758 79.23122764 246.48784941 54.5645088 246.48386067 C41.50197713 246.4819459 28.43948205 246.48446295 15.37695694 246.49857521 C4.25665072 246.51046731 -6.8635964 246.51191834 -17.98390339 246.49978504 C-23.65964059 246.49388106 -29.33526958 246.49283881 -35.01099968 246.50478745 C-40.20475633 246.51559453 -45.39831375 246.51260478 -50.59206088 246.49852576 C-52.4729117 246.49586451 -54.35377789 246.49828985 -56.2346137 246.50626162 C-58.78841742 246.51633604 -61.34152435 246.50797291 -63.89529991 246.49498463 C-64.99422943 246.50594865 -64.99422943 246.50594865 -66.11535954 246.51713416 C-72.57030143 246.4489461 -77.04514159 244.87857919 -81.94221497 240.62025452 C-85.50889707 236.42415793 -85.38533702 232.60009491 -85.32643127 227.3165741 C-84.84760842 221.41235119 -83.08566081 215.89394792 -81.38752747 210.24134827 C-80.9868776 208.86824105 -80.58758199 207.4947381 -80.18951416 206.12088013 C-79.32768675 203.15683381 -78.4567305 200.19568554 -77.57847595 197.23646545 C-76.16288461 192.46628916 -74.76780235 187.69025957 -73.37556458 182.91322327 C-71.6188929 176.89076233 -69.85720534 170.86980941 -68.08962154 164.85054207 C-63.05564477 147.70518336 -58.10586681 130.53557655 -53.15393734 113.36637974 C-51.20009729 106.59310015 -49.24112762 99.82131878 -47.27986145 93.05018616 C-42.62719724 76.9814318 -37.98395874 60.91145833 -33.48127747 44.79994202 C-32.82820525 42.47246695 -32.17512928 40.14499293 -31.52204895 37.81752014 C-30.38734255 33.77054707 -29.26887634 29.719622 -28.16120911 25.66517639 C-27.67600624 23.92869293 -27.1902883 22.19235326 -26.70393372 20.45619202 C-26.50615326 19.71174835 -26.3083728 18.96730469 -26.104599 18.20030212 C-24.35836654 12.0539101 -21.70411321 6.16385065 -16.56721497 2.18275452 C-11.12658105 -0.1295149 -5.81149821 -0.01984249 0 0 Z " fill="#000000" transform="translate(85.06721496582031,187.87974548339844)"/>
<path d="M0 0 C2.42806372 3.12874383 1.71468624 6.95972305 1.31640625 10.69628906 C0.51649584 15.12622769 -0.55542858 19.46456829 -1.68359375 23.82128906 C-1.99828613 25.05105469 -2.31297852 26.28082031 -2.63720703 27.54785156 C-7.57162102 46.36227891 -14.29257553 64.16653812 -22.68359375 81.69628906 C-23.01327148 82.39270508 -23.34294922 83.08912109 -23.68261719 83.80664062 C-46.49541248 131.77141123 -46.49541248 131.77141123 -62.44140625 137.61035156 C-64.22547654 138.19609397 -66.01483985 138.76590819 -67.80859375 139.32128906 C-69.20766968 139.76903687 -69.20766968 139.76903687 -70.63500977 140.22583008 C-88.57410889 145.89696045 -88.57410889 145.89696045 -96.68359375 145.69628906 C-96.68359375 146.35628906 -96.68359375 147.01628906 -96.68359375 147.69628906 C-96.01972656 147.74527344 -95.35585938 147.79425781 -94.671875 147.84472656 C-85.0435123 148.65997479 -85.0435123 148.65997479 -81.68359375 150.69628906 C-79.41821181 153.41474739 -78.67926742 154.92620254 -78.69921875 158.47753906 C-80.08743143 163.01677416 -82.70548287 165.00003719 -86.30859375 167.94628906 C-86.98229004 168.51130127 -87.65598633 169.07631348 -88.35009766 169.65844727 C-95.11496408 175.23131873 -102.24442753 180.07952008 -109.68359375 184.69628906 C-110.33521484 185.10975586 -110.98683594 185.52322266 -111.65820312 185.94921875 C-138.60035144 202.98115993 -170.09316867 213.43853084 -201.80786133 216.44506836 C-209.03239406 217.27144348 -212.77159563 220.27157156 -217.359375 225.86035156 C-218.2445103 227.0092251 -219.1232486 228.16305063 -219.99609375 229.32128906 C-220.94829942 230.55897606 -221.90143846 231.79594548 -222.85546875 233.03222656 C-223.32662109 233.64549805 -223.79777344 234.25876953 -224.28320312 234.890625 C-235.42203581 249.25303898 -235.42203581 249.25303898 -238.99609375 250.50878906 C-242.48081592 250.75190921 -243.90280455 249.72551361 -246.68359375 247.69628906 C-248.68359375 245.69628906 -248.68359375 245.69628906 -249.078125 242.48535156 C-248.61417336 238.02957835 -247.04074101 235.50461303 -244.37109375 232.07128906 C-243.92612549 231.47445312 -243.48115723 230.87761719 -243.02270508 230.26269531 C-238.96170297 224.88669531 -234.63858446 219.72362869 -230.2265625 214.63378906 C-229.38738281 213.66441406 -228.54820312 212.69503906 -227.68359375 211.69628906 C-226.81992187 210.85839844 -225.95625 210.02050781 -225.06640625 209.15722656 C-221.18714988 204.46108467 -220.59339503 198.12034164 -219.37109375 192.32128906 C-218.78156029 189.69283016 -218.17301409 187.06903254 -217.55859375 184.44628906 C-217.40488815 183.78835358 -217.25118256 183.13041809 -217.09281921 182.45254517 C-208.10979853 144.60367057 -189.84531993 110.14226463 -164.68359375 80.69628906 C-164.22758789 80.15907227 -163.77158203 79.62185547 -163.30175781 79.06835938 C-155.7773337 70.25306341 -155.7773337 70.25306341 -151.68359375 68.69628906 C-147.92296406 68.77463551 -146.25366049 69.15879757 -143.49609375 71.75878906 C-141.99392116 74.19334464 -141.03504624 76.22482687 -140.0703125 78.87988281 C-139.80822998 79.59587646 -139.54614746 80.31187012 -139.27612305 81.04956055 C-139.08058838 81.59298096 -138.88505371 82.13640137 -138.68359375 82.69628906 C-138.61366211 82.12297852 -138.54373047 81.54966797 -138.47167969 80.95898438 C-134.73388269 50.99651519 -134.73388269 50.99651519 -126.68359375 44.69628906 C-126.05324219 44.14199219 -125.42289062 43.58769531 -124.7734375 43.01660156 C-116.78565109 36.19341523 -107.74969302 30.93888645 -98.68359375 25.69628906 C-98.06532715 25.33631836 -97.44706055 24.97634766 -96.81005859 24.60546875 C-87.36550923 19.19084571 -87.36550923 19.19084571 -82.62109375 19.63378906 C-79.7522003 20.67147393 -78.36115737 21.17994363 -76.68359375 23.69628906 C-76.32426477 25.02285289 -75.98758556 26.35596154 -75.68359375 27.69628906 C-75.57402344 26.86484375 -75.46445312 26.03339844 -75.3515625 25.17675781 C-75.19300781 24.09007813 -75.03445313 23.00339844 -74.87109375 21.88378906 C-74.64486328 20.26537109 -74.64486328 20.26537109 -74.4140625 18.61425781 C-73.62028881 15.44340785 -73.15050806 14.70225744 -70.68359375 12.69628906 C-68.41308594 11.70068359 -68.41308594 11.70068359 -65.73046875 10.82910156 C-64.22963745 10.34014404 -64.22963745 10.34014404 -62.69848633 9.84130859 C-61.62107178 9.50470215 -60.54365723 9.1680957 -59.43359375 8.82128906 C-58.32201904 8.47050293 -57.21044434 8.1197168 -56.06518555 7.75830078 C-8.78649208 -6.80392513 -8.78649208 -6.80392513 0 0 Z " fill="#000000" transform="translate(510.68359375,80.3037109375)"/>
</svg>
