<?xml version="1.0" encoding="UTF-8"?>
<svg version="1.1" xmlns="http://www.w3.org/2000/svg" width="512" height="512">
<path d="M0 0 C1.56041016 0.49306641 1.56041016 0.49306641 3.15234375 0.99609375 C17.39314745 5.98469044 30.03831234 14.56023812 42.6796875 22.62890625 C48.74340258 26.48941766 54.87179355 30.24302699 61 34 C69.33271812 39.11375131 77.63683025 44.26666394 85.89428711 49.50097656 C100.63081407 58.84188918 115.4440051 68.05827682 130.3125 77.1875 C140.10467674 83.2015928 149.8524422 89.27825867 159.54736328 95.44775391 C162.2831625 97.17921035 165.02984508 98.89264229 167.77734375 100.60546875 C169.74744837 101.84106206 171.71750133 103.07673776 173.6875 104.3125 C175.05116699 105.15675537 175.05116699 105.15675537 176.44238281 106.01806641 C187.09243277 112.72621476 195.433252 119.54739719 199 132 C200.4480811 142.7213697 197.7112832 150.43829033 191.48828125 159.10546875 C185.34156913 166.05454888 176.60443121 170.52975752 168.76708984 175.30664062 C164.93285902 177.65305186 161.1255032 180.04149698 157.31689453 182.42919922 C154.26959912 184.33939236 151.21918102 186.24450808 148.16796875 188.1484375 C144.12669625 190.67096652 140.08762756 193.19695645 136.05078125 195.7265625 C124.52382944 202.94682465 112.96235339 210.10746487 101.37084961 217.22363281 C94.17957201 221.64387505 87.025472 226.11798268 79.89794922 230.64013672 C73.36231318 234.7831507 66.78718603 238.86019231 60.20166016 242.92333984 C54.34699447 246.53822171 48.51397469 250.18602942 42.68920898 253.84887695 C12.07254638 273.07662876 -16.31398632 285.54072856 -52.96484375 277.50048828 C-68.23296941 273.74573089 -81.49166257 264.79864033 -94.57421875 256.44140625 C-100.67184388 252.55531971 -106.83541456 248.77862686 -113 245 C-121.33276031 239.88631847 -129.63683122 234.73333545 -137.89428711 229.49902344 C-153.72638288 219.46367226 -169.6535541 209.58404875 -185.62792969 199.77709961 C-192.80899954 195.36317133 -199.9564136 190.90068304 -207.0690918 186.37744141 C-211.19824668 183.75520231 -215.34547699 181.16747607 -219.51953125 178.6171875 C-220.45369873 178.04508545 -221.38786621 177.4729834 -222.3503418 176.88354492 C-224.13415646 175.79316565 -225.92057536 174.70702928 -227.71020508 173.6262207 C-238.90992614 166.77259437 -251.51041092 158.46279339 -255 145 C-256.14200128 135.62852554 -254.8952163 127.6826763 -249.52734375 119.8515625 C-242.52872135 111.21496465 -232.20546912 105.77079189 -222.875 100 C-220.74472585 98.67588713 -218.6145194 97.35166534 -216.484375 96.02734375 C-215.40607422 95.35815918 -214.32777344 94.68897461 -213.21679688 93.99951172 C-209.16146542 91.47877974 -205.11550728 88.94325817 -201.06958008 86.4074707 C-191.63651008 80.49703956 -182.17407918 74.63664436 -172.6875 68.8125 C-163.68670973 63.28586137 -154.72933777 57.69764284 -145.80859375 52.04296875 C-129.65632824 41.80837031 -113.39848303 31.74197686 -97.09765625 21.74609375 C-93.3042809 19.41986123 -89.51966583 17.08086662 -85.74609375 14.72265625 C-60.35962616 -1.09808301 -29.58713387 -9.73105468 0 0 Z M-68 67 C-68.74330566 67.47421387 -69.48661133 67.94842773 -70.25244141 68.43701172 C-73.7569558 70.6809554 -77.24750702 72.94542899 -80.73046875 75.22265625 C-85.25004212 78.17320971 -89.80863286 81.06005041 -94.375 83.9375 C-95.16656494 84.43636719 -95.95812988 84.93523437 -96.77368164 85.44921875 C-98.37988895 86.46102342 -99.98625335 87.47257875 -101.59277344 88.48388672 C-105.56436947 90.98526718 -109.53199716 93.49292509 -113.5 96 C-115.08331399 97.00003062 -116.66664733 98.00003061 -118.25 99 C-119.03375 99.495 -119.8175 99.99 -120.625 100.5 C-150.3125 119.25 -150.3125 119.25 -180 138 C-176.7942037 140.637124 -173.5659361 142.99892168 -170.03515625 145.1796875 C-169.0817334 145.77144775 -168.12831055 146.36320801 -167.14599609 146.97290039 C-166.12844238 147.60059326 -165.11088867 148.22828613 -164.0625 148.875 C-161.88885926 150.22451389 -159.71569215 151.57479092 -157.54296875 152.92578125 C-155.89820557 153.94792725 -155.89820557 153.94792725 -154.22021484 154.99072266 C-149.42004277 157.98582623 -144.64520668 161.01996571 -139.875 164.0625 C-138.52740601 164.92174072 -138.52740601 164.92174072 -137.15258789 165.79833984 C-135.34080951 166.95399226 -133.52920398 168.10991572 -131.71777344 169.26611328 C-127.14786594 172.18162559 -122.57372425 175.0904804 -118 178 C-112.46411697 181.52229732 -106.92862459 185.04520382 -101.39453125 188.5703125 C-95.93152181 192.04976327 -90.46653992 195.52609877 -85 199 C-84.16839355 199.52867676 -83.33678711 200.05735352 -82.47998047 200.60205078 C-77.76443288 203.59773311 -73.03938156 206.57755451 -68.30566406 209.54443359 C-65.95116929 211.03082684 -63.61216634 212.53972883 -61.2734375 214.05078125 C-48.45129569 222.2501014 -35.7690288 228.60596482 -20 226 C-10.80523284 223.87585641 -3.39736641 220.29888067 4.4375 215.125 C5.46536621 214.46443604 6.49323242 213.80387207 7.55224609 213.12329102 C9.67500056 211.75805897 11.79383794 210.38671694 13.90869141 209.00927734 C17.72442469 206.52914112 21.56645349 204.09214451 25.41113281 201.65722656 C29.03560897 199.36046423 32.65208281 197.05124898 36.26904297 194.74267578 C40.90642224 191.7834756 45.5467815 188.82895989 50.1875 185.875 C51.10289551 185.29226318 52.01829102 184.70952637 52.96142578 184.10913086 C59.57282963 179.90257062 66.19601428 175.71497481 72.82373047 171.53417969 C81.5998611 165.99540114 90.35210662 160.41917933 99.10498047 154.84375 C104.19404174 151.60268146 109.2846187 148.36399476 114.375 145.125 C116.23698557 143.94011424 118.09896536 142.75521937 119.9609375 141.5703125 C121.30729167 140.71354167 122.65364583 139.85677083 124 139 C121.43744891 136.30200904 118.9708316 134.18142408 115.7890625 132.2578125 C114.96776855 131.75628662 114.14647461 131.25476074 113.30029297 130.73803711 C112.41744629 130.20573486 111.53459961 129.67343262 110.625 129.125 C108.72319659 127.9634859 106.82217962 126.80068334 104.921875 125.63671875 C103.94283203 125.03778809 102.96378906 124.43885742 101.95507812 123.82177734 C97.23055099 120.90915164 92.55193001 117.92575754 87.875 114.9375 C86.03259319 113.76165434 84.19014558 112.5858726 82.34765625 111.41015625 C81.45320801 110.8392627 80.55875977 110.26836914 79.63720703 109.68017578 C75.53601239 107.06728729 71.42503495 104.46999123 67.3125 101.875 C66.53801514 101.38620361 65.76353027 100.89740723 64.96557617 100.39379883 C62.6439174 98.92888195 60.32200735 97.46436428 58 96 C48.92340604 90.27588376 39.85041748 84.54646008 30.79907227 78.7824707 C28.01783555 77.01135782 25.23548742 75.24199999 22.453125 73.47265625 C18.87513659 71.1966227 15.30287318 68.91197321 11.734375 66.62109375 C10.07298371 65.55979088 8.41152838 64.49858824 6.75 63.4375 C6.01265625 62.96119141 5.2753125 62.48488281 4.515625 61.99414062 C-22.12462422 45.03028627 -42.71623838 50.84413023 -68 67 Z " fill="#000000" transform="translate(284,3)"/>
<path d="M0 0 C2.46923828 1.30004883 2.46923828 1.30004883 5.0703125 2.95703125 C6.0394458 3.56893311 7.0085791 4.18083496 8.00708008 4.8112793 C9.03599365 5.47168213 10.06490723 6.13208496 11.125 6.8125 C12.19451904 7.49030518 13.26403809 8.16811035 14.3659668 8.86645508 C16.54887981 10.25058676 18.72979774 11.63786999 20.90869141 13.02832031 C24.43341165 15.27643599 27.96901163 17.50682193 31.5065918 19.73461914 C33.81866809 21.19138632 36.12843538 22.6517458 38.4375 24.11328125 C41.49846235 26.05062407 44.56094312 27.98552379 47.625 29.91796875 C60.71086002 38.17185308 73.76278001 46.47861707 86.81152344 54.79101562 C97.13492365 61.36665864 107.46445981 67.93196253 117.81713867 74.46142578 C123.88787553 78.29230722 129.94553106 82.1434692 136 86 C145.29341623 91.91791207 154.59277845 97.82576316 163.92236328 103.68652344 C165.85128434 104.90598234 167.7688309 106.14128635 169.68359375 107.3828125 C182.96728342 115.86309495 195.37968857 119.87800785 211.15234375 116.703125 C221.63424334 114.11500164 229.79409474 108.43773832 238.67626953 102.53076172 C242.54042978 99.98523905 246.45750862 97.52484251 250.375 95.0625 C251.9831024 94.04952596 253.59117519 93.03650494 255.19921875 92.0234375 C256.39490479 91.27078613 256.39490479 91.27078613 257.61474609 90.50292969 C259.93889164 89.0385039 262.26088789 87.57074131 264.58203125 86.1015625 C273.30728979 80.57987029 282.05170753 75.09015259 290.8125 69.625 C300.49524107 63.58313015 310.13513447 57.47680011 319.7578125 51.33984375 C327.04761989 46.69148478 334.36063971 42.07999678 341.67333984 37.46777344 C344.82228949 35.48125872 347.97015216 33.49302547 351.11791992 31.50463867 C352.705214 30.50202584 354.29261626 29.49958426 355.88012695 28.49731445 C360.59842636 25.51827933 365.31385763 22.53477839 370.02685547 19.54736328 C372.36868625 18.06649254 374.7154379 16.59365538 377.0625 15.12109375 C380.62925636 12.87956687 384.16229486 10.59142643 387.6875 8.28515625 C389.58315098 7.06482086 391.47898047 5.8447627 393.375 4.625 C394.26106934 4.03468994 395.14713867 3.44437988 396.06005859 2.83618164 C396.89359863 2.30500732 397.72713867 1.77383301 398.5859375 1.2265625 C399.68494385 0.50847412 399.68494385 0.50847412 400.80615234 -0.22412109 C403 -1 403 -1 405.65136719 -0.21582031 C414.61266572 4.4231887 422.56585436 11.97730749 426.33984375 21.453125 C428.63158646 30.29464124 427.5630248 39.11964264 423 47 C416.16864756 56.96616403 404.94032369 62.77470869 394.875 69 C392.74472585 70.32411287 390.6145194 71.64833466 388.484375 72.97265625 C387.40607422 73.64184082 386.32777344 74.31102539 385.21679688 75.00048828 C381.16146542 77.52122026 377.11550728 80.05674183 373.06958008 82.5925293 C363.63651008 88.50296044 354.17407918 94.36335564 344.6875 100.1875 C335.68670973 105.71413863 326.72933777 111.30235716 317.80859375 116.95703125 C301.65632824 127.19162969 285.39848303 137.25802314 269.09765625 147.25390625 C265.3042809 149.58013877 261.51966583 151.91913338 257.74609375 154.27734375 C233.36542483 169.47127353 206.91183463 176.60856382 178.0625 170.8125 C176.02667088 170.26097076 174.00362826 169.65898293 172 169 C170.95972656 168.67128906 169.91945312 168.34257812 168.84765625 168.00390625 C154.60685255 163.01530956 141.96168766 154.43976188 129.3203125 146.37109375 C123.25659742 142.51058234 117.12820645 138.75697301 111 135 C102.66728188 129.88624869 94.36316975 124.73333606 86.10571289 119.49902344 C71.36918593 110.15811082 56.5559949 100.94172318 41.6875 91.8125 C31.89532326 85.7984072 22.1475578 79.72174133 12.45263672 73.55224609 C9.7168375 71.82078965 6.97015492 70.10735771 4.22265625 68.39453125 C2.25255163 67.15893794 0.28249867 65.92326224 -1.6875 64.6875 C-3.05116699 63.84324463 -3.05116699 63.84324463 -4.44238281 62.98193359 C-15.09243277 56.27378524 -23.433252 49.45260281 -27 37 C-28.30299711 27.35280989 -26.4157914 20.04302638 -21 12 C-15.83337337 5.60018676 -8.71528431 -2.3594518 0 0 Z " fill="#000000" transform="translate(56,340)"/>
<path d="M0 0 C2.14624023 1.0847168 2.14624023 1.0847168 4.30859375 2.44921875 C5.12666504 2.9604126 5.94473633 3.47160645 6.78759766 3.99829102 C7.66206543 4.55572998 8.5365332 5.11316895 9.4375 5.6875 C10.81881104 6.55556274 10.81881104 6.55556274 12.22802734 7.44116211 C15.1574727 9.28563688 18.0793944 11.14156514 21 13 C22.86846109 14.18494076 24.7369502 15.36983734 26.60546875 16.5546875 C30.29479647 18.89746437 33.98053669 21.24576888 37.6640625 23.59765625 C42.59935856 26.74775069 47.54721777 29.87749191 52.5 33 C63.9596451 40.22835447 75.38429655 47.51156647 86.81152344 54.79101562 C97.13492365 61.36665864 107.46445981 67.93196253 117.81713867 74.46142578 C123.88787553 78.29230722 129.94553106 82.1434692 136 86 C145.29341623 91.91791207 154.59277845 97.82576316 163.92236328 103.68652344 C165.85128434 104.90598234 167.7688309 106.14128635 169.68359375 107.3828125 C182.96728342 115.86309495 195.37968857 119.87800785 211.15234375 116.703125 C221.63424334 114.11500164 229.79409474 108.43773832 238.67626953 102.53076172 C242.54043083 99.98523836 246.4575338 97.52488427 250.375 95.0625 C251.97658075 94.05341438 253.57814316 93.04429965 255.1796875 92.03515625 C255.97600586 91.53387207 256.77232422 91.03258789 257.59277344 90.51611328 C261.56436947 88.01473282 265.53199716 85.50707491 269.5 83 C271.08331399 81.99996938 272.66664733 80.99996939 274.25 80 C275.03375 79.505 275.8175 79.01 276.625 78.5 C279 77 281.375 75.5 283.75 74 C284.53334717 73.5052417 285.31669434 73.0104834 286.1237793 72.50073242 C287.71113526 71.49821757 289.29853779 70.49577646 290.88598633 69.4934082 C294.78315395 67.03248037 298.67957101 64.57038288 302.57421875 62.10546875 C311.30270013 56.58346299 320.0492527 51.09168396 328.8125 45.625 C338.49524107 39.58313015 348.13513447 33.47680011 357.7578125 27.33984375 C363.49268938 23.68298906 369.23975004 20.04561643 374.99560547 16.421875 C379.09702012 13.83901935 383.18784343 11.24113573 387.265625 8.62109375 C388.56367065 7.79085693 388.56367065 7.79085693 389.88793945 6.94384766 C391.5481693 5.8815422 393.20570966 4.81501786 394.86010742 3.74365234 C395.60623291 3.26750488 396.3523584 2.79135742 397.12109375 2.30078125 C398.10227173 1.66910034 398.10227173 1.66910034 399.10327148 1.0246582 C401.09838285 -0.05314878 402.75842158 -0.66233832 405 -1 C414.10262504 3.42746728 422.66182247 12.00251096 426.375 21.484375 C428.280422 29.15369855 427.95326984 36.92360078 424.24609375 43.953125 C423.83488281 44.62859375 423.42367188 45.3040625 423 46 C422.59910156 46.67546875 422.19820313 47.3509375 421.78515625 48.046875 C415.44417834 57.53077239 404.33186432 63.20658082 394.8125 69.0625 C392.69131766 70.37746127 390.57022645 71.69256956 388.44921875 73.0078125 C387.37720215 73.67071289 386.30518555 74.33361328 385.20068359 75.01660156 C381.14899857 77.52734826 377.11021998 80.05836162 373.07177734 82.59033203 C362.53978953 89.19223923 351.96397654 95.7203808 341.37084961 102.22363281 C334.17957201 106.64387505 327.025472 111.11798268 319.89794922 115.64013672 C313.35699374 119.78652275 306.77547666 123.86515837 300.1862793 127.93432617 C294.462016 131.47117987 288.74906024 135.02550265 283.04492188 138.59472656 C280.01432905 140.491034 276.98178667 142.38419698 273.94921875 144.27734375 C270.04744881 146.71459805 266.15530594 149.16624215 262.26953125 151.62890625 C236.29353457 168.02598164 209.18424851 177.06511009 178.0625 170.8125 C176.02667088 170.26097076 174.00362826 169.65898293 172 169 C170.95972656 168.67128906 169.91945312 168.34257812 168.84765625 168.00390625 C154.48586827 162.9729284 141.71657845 154.29896797 128.96875 146.16015625 C123.94562362 142.95523498 118.88349512 139.81596529 113.8125 136.6875 C106.25732951 132.02144241 98.71630951 127.33348001 91.1875 122.625 C90.18485107 121.99803223 89.18220215 121.37106445 88.14916992 120.72509766 C83.11766406 117.57794086 78.08761656 114.42846657 73.05859375 111.27734375 C62.62802097 104.74535215 52.1756426 98.25171392 41.6875 91.8125 C31.89530094 85.79844454 22.14755711 79.72174089 12.45263672 73.55224609 C9.7168375 71.82078965 6.97015492 70.10735771 4.22265625 68.39453125 C2.25255163 67.15893794 0.28249867 65.92326224 -1.6875 64.6875 C-3.05116699 63.84324463 -3.05116699 63.84324463 -4.44238281 62.98193359 C-15.09243277 56.27378524 -23.433252 49.45260281 -27 37 C-28.30299711 27.35280989 -26.4157914 20.04302638 -21 12 C-15.80661502 5.56704165 -8.74246708 -2.30455367 0 0 Z " fill="#000000" transform="translate(56,227)"/>
</svg>
